Coordinates
version=1
nRows=10
nColumns=40
inDegrees=yes

Units are S.I. units (second, meters, Newtons, ...)
Angles are in degrees.

endheader
time	pelvis_tilt	pelvis_list	pelvis_rotation	pelvis_tx	pelvis_ty	pelvis_tz	hip_flexion_r	hip_adduction_r	hip_rotation_r	knee_angle_r	knee_angle_r_beta	ankle_angle_r	subtalar_angle_r	mtp_angle_r	hip_flexion_l	hip_adduction_l	hip_rotation_l	knee_angle_l	knee_angle_l_beta	ankle_angle_l	subtalar_angle_l	mtp_angle_l	lumbar_extension	lumbar_bending	lumbar_rotation	arm_flex_r	arm_add_r	arm_rot_r	elbow_flex_r	pro_sup_r	wrist_flex_r	wrist_dev_r	arm_flex_l	arm_add_l	arm_rot_l	elbow_flex_l	pro_sup_l	wrist_flex_l	wrist_dev_l
     46.38000000	     -4.91717487	     -4.47592916	     -0.19375564	      1.03630123	      0.93142814	      0.52166211	     13.93761002	      3.31120562	    -18.84212782	     14.68873155	     14.68873155	      9.49739339	      6.46026161	     -5.59384909	     34.87985034	    -15.14241949	     -4.97199713	     46.54852539	     46.54852539	     15.14077385	    -19.27537690	     19.48990257	    -14.00052482	      8.87686265	      5.18680227	     18.10985363	    -19.35684352	      2.34808231	     60.95862366	     45.32157166	      0.00000000	      0.00000000	     -7.89016850	     -9.18706423	    -10.13560035	     83.91864794	     46.72496640	      0.00000000	      0.00000000
     46.39214286	     -5.03748969	     -4.33631710	     -0.11251069	      1.03442517	      0.93135249	      0.52184787	     13.68746645	      3.14216558	    -18.92041566	     14.76251673	     14.76251673	      9.82259446	      6.64655072	     -5.82031546	     35.54647558	    -14.58961751	     -4.46577207	     44.15339697	     44.15339697	     14.72174546	    -19.05362904	     19.57880356	    -13.93338394	      8.84255136	      5.05377255	     19.05217157	    -18.99284093	      2.45654021	     61.83817262	     45.29224094	      0.00000000	      0.00000000	     -8.61446480	     -9.16355472	    -10.21665291	     82.82054286	     46.72276898	      0.00000000	      0.00000000
     46.40428571	     -5.14327331	     -4.25900105	     -0.03162368	      1.03267537	      0.93123427	      0.52200720	     13.40644063	      3.00978085	    -19.19289822	     14.83283712	     14.83283712	     10.18171538	      7.12811896	     -6.01083643	     35.93625030	    -14.13680230	     -4.07117264	     41.33546916	     41.33546916	     13.36858472	    -18.76963181	     17.36100772	    -13.87808610	      8.90685743	      5.21492146	     19.57712509	    -19.21930857	      3.39854586	     63.59495257	     45.20541507	      0.00000000	      0.00000000	     -8.68834320	     -8.69594340	    -11.12651437	     80.46315686	     46.81731729	      0.00000000	      0.00000000
     46.41642857	     -5.20709317	     -4.16709391	      0.05443540	      1.03095846	      0.93122158	      0.52211420	     13.05641937	      2.92604387	    -19.16811331	     14.82000688	     14.82000688	     10.48450789	      7.10711345	     -6.08984622	     36.21589372	    -13.61682685	     -3.54425019	     38.53258003	     38.53258003	     12.64972538	    -18.29991767	     17.28761919	    -13.88943682	      8.92711808	      5.01334856	     20.51379783	    -18.83672500	      3.46901724	     64.59441557	     45.17482279	      0.00000000	      0.00000000	     -9.40698119	     -8.73412430	    -10.98819035	     79.51691964	     46.80159247	      0.00000000	      0.00000000
     46.42857143	     -5.34483613	     -4.37065867	      0.11285362	      1.02929061	      0.93079900	      0.52238123	     12.83830409	      3.14886160	    -19.23036958	     14.90962831	     14.90962831	     10.82561414	      7.10345649	     -6.24895449	     36.69441993	    -13.50634121	     -2.98906817	     36.04212159	     36.04212159	     12.35939695	    -17.14068269	     17.45226016	    -13.78354984	      9.25678646	      5.40274089	     21.23218003	    -18.80808846	      3.46261043	     65.07180239	     45.16258174	      0.00000000	      0.00000000	     -9.96437926	     -8.65912951	    -10.97845357	     79.07238524	     46.79206208	      0.00000000	      0.00000000
     46.44071429	     -5.36195509	     -4.12088453	      0.19709524	      1.02791604	      0.93114261	      0.52225256	     12.24194506	      2.87247269	    -19.57961711	     14.57955526	     14.57955526	     11.14690066	      7.91951488	     -6.06484349	     36.39310323	    -12.89533312	     -2.87791313	     32.62918363	     32.62918363	     10.38954986	    -16.41537619	     14.44173230	    -13.83717514	      9.13676511	      5.23452971	     21.52414976	    -18.92203926	      4.59746290	     67.79323468	     45.04193952	      0.00000000	      0.00000000	     -9.72560471	     -8.31803132	    -11.71073684	     75.57107973	     46.84058208	      0.00000000	      0.00000000
     46.45285714	     -5.42505568	     -4.07617683	      0.23517413	      1.02652310	      0.93118566	      0.52230479	     11.77421760	      2.87652045	    -19.54122283	     14.35109375	     14.35109375	     11.41590780	      8.02409816	     -6.07218796	     36.40567541	    -12.61043664	     -2.79933939	     29.90266061	     29.90266061	      9.93335972	    -14.80854497	     14.50516096	    -13.82968358	      9.16651928	      5.18103242	     22.18904058	    -18.50997997	      4.66980734	     68.67353817	     45.01546966	      0.00000000	      0.00000000	    -10.36556748	     -8.44768184	    -11.62911340	     74.88040873	     46.82886994	      0.00000000	      0.00000000
     46.46500000	     -5.46932142	     -4.08674376	      0.28677323	      1.02528594	      0.93129965	      0.52226948	     11.20568908	      2.94300493	    -19.64493879	     13.98284393	     13.98284393	     11.65034590	      8.34483675	     -6.03885759	     36.36862689	    -12.40473738	     -2.88387470	     27.32986904	     27.32986904	      9.47261368	    -13.06051886	     14.44205383	    -13.84316137	      9.24177901	      5.07373879	     22.75395524	    -18.12503953	      4.92291550	     69.82120150	     44.97411660	      0.00000000	      0.00000000	    -10.85038844	     -8.53817327	    -11.70618454	     73.74853490	     46.82372341	      0.00000000	      0.00000000
     46.47714286	     -5.50906597	     -4.12630300	      0.32777777	      1.02416565	      0.93138931	      0.52213830	     10.57312350	      3.04446441	    -19.79406526	     13.52530144	     13.52530144	     11.86878202	      8.81705782	     -5.95993468	     36.32273995	    -12.25039199	     -3.12296463	     24.98445253	     24.98445253	      9.06401082	    -11.25647415	     14.23045216	    -13.84703513	      9.37259621	      5.04819143	     23.16942817	    -17.88936614	      5.37040078	     71.22464120	     44.91892497	      0.00000000	      0.00000000	    -11.14207226	     -8.54683386	    -11.92586670	     72.33476241	     46.82880923	      0.00000000	      0.00000000
     46.48928571	     -5.59024694	     -4.20577320	      0.35033540	      1.02314617	      0.93141005	      0.52196560	      9.95125728	      3.19680235	    -19.96205198	     13.00739627	     13.00739627	     12.07842067	      9.35517001	     -5.80413990	     36.32514581	    -12.15419166	     -3.53830076	     22.90411161	     22.90411161	      8.57910416	     -9.55372316	     13.83634746	    -13.79397594	      9.56394905	      5.17699052	     23.29685667	    -17.95251332	      6.07971005	     73.04414748	     44.84657112	      0.00000000	      0.00000000	    -11.19234303	     -8.44802306	    -12.27666243	     70.66037974	     46.85104237	      0.00000000	      0.00000000
